<svg xmlns="http://www.w3.org/2000/svg" data-name="Layer 1" viewBox="0 0 168 168"><path fill="#2d4356" d="M70.57959 98.46478l-14-8a.99964.99964 0 0 0-1.49609.86823v16a.99986.99986 0 0 0 1.49609.86816l14-8a.99987.99987 0 0 0 0-1.73639zM57.0835 105.60938V93.05658l1.72662.98639v3.6474a1 1 0 1 0 2 0V95.18549L62.8335 96.3418v3.6377a1 1 0 1 0 2 0V97.48541l3.23438 1.8476zM37 32A13 13 0 1 0 50 45 13.01466 13.01466 0 0 0 37 32zm0 24A11 11 0 1 1 48 45 11.01249 11.01249 0 0 1 37 56zM76 40a8 8 0 1 0-8-8A8.00924 8.00924 0 0 0 76 40zm0-14a6 6 0 1 1-6 6A6.00656 6.00656 0 0 1 76 26zM105 82a.99978.99978 0 0 0-1 1v32a1 1 0 0 0 2 0V83A.99978.99978 0 0 0 105 82z"/><circle cx="79.744" cy="32.159" r="1.988" fill="#2d4356" transform="rotate(-42.402 79.744 32.16)"/><circle cx="75.837" cy="35.746" r="1.989" fill="#2d4356" transform="rotate(-42.412 75.837 35.746)"/><circle cx="72.261" cy="31.831" r="1.989" fill="#2d4356" transform="rotate(-42.415 72.26 31.83)"/><circle cx="76.176" cy="28.254" r="1.988" fill="#2d4356" transform="rotate(-42.412 76.176 28.254)"/><circle cx="43.923" cy="45.295" r="3.682" fill="#2d4356" transform="rotate(-42.412 43.923 45.295)"/><circle cx="36.691" cy="51.936" r="3.682" fill="#2d4356" transform="rotate(-42.41 36.691 51.936)"/><circle cx="30.069" cy="44.686" r="3.682" fill="#2d4356" transform="rotate(-42.412 30.07 44.686)"/><circle cx="37.319" cy="38.064" r="3.682" fill="#2d4356" transform="rotate(-42.41 37.319 38.064)"/><path fill="#2d4356" d="M105 35.5a2 2 0 1 0-2-2A2.00229 2.00229 0 0 0 105 35.5zm0-3a1 1 0 1 1-1 1A1.001 1.001 0 0 1 105 32.5zM151 8.5a3 3 0 1 0 3 3A3.00344 3.00344 0 0 0 151 8.5zm0 4.5a1.5 1.5 0 1 1 1.5-1.5A1.50148 1.50148 0 0 1 151 13zM126 53.75a2.25 2.25 0 1 0-2.25-2.25A2.25258 2.25258 0 0 0 126 53.75zm0-3.375a1.125 1.125 0 1 1-1.125 1.125A1.12607 1.12607 0 0 1 126 50.375zM116 10.5a2 2 0 1 0-2-2A2.00229 2.00229 0 0 0 116 10.5zm0-3a1 1 0 1 1-1 1A1.001 1.001 0 0 1 116 7.5zM6 58.5a2 2 0 1 0-2 2A2.00229 2.00229 0 0 0 6 58.5zm-2 1a1 1 0 1 1 1-1A1.001 1.001 0 0 1 4 59.5z"/><path fill="#2d4356" d="M152 147H95.16907a.99533.99533 0 0 0-.295-.71L76.42871 128H98.49707a3.47238 3.47238 0 0 0 1.24664-.23834.91574.91574 0 0 0 .16547-.08295A3.65091 3.65091 0 0 0 102 124.3584V124h5a3.00328 3.00328 0 0 0 3-3v-2.76459l6.02692 1.6084a2.559 2.559 0 0 0 1.77875 2.04486l26.41162 8.998a3.07768 3.07768 0 0 0 .99561.166 2.96882 2.96882 0 0 0 1.73138-.5498A2.43 2.43 0 0 0 148 128.52148V69.582a2.43185 2.43185 0 0 0-1.05573-1.98236 3.013 3.013 0 0 0-2.727-.38385l-26.41211 8.99811a2.59786 2.59786 0 0 0-1.77686 2.04L110 79.87006V77a3.00328 3.00328 0 0 0-3-3h-5v-.3584a3.66869 3.66869 0 0 0-2.51123-3.49609A3.54514 3.54514 0 0 0 98.49707 70H51.478L93.76221 50.252a3.04474 3.04474 0 0 0 1.46631-4.004l-2.7041-5.98041A2.98148 2.98148 0 0 0 90.832 38.68549a2.93366 2.93366 0 0 0-2.28455.09381l-4.51184 2.10736A11.98751 11.98751 0 1 0 66.12451 25.19818c-8.48053 5.39648-19.27643 4.43463-23.53912 3.76373a17.01215 17.01215 0 1 0-3.43207 32.88574L22.23828 69.748a2.99784 2.99784 0 0 0-1.56891 1.77057A3.709 3.709 0 0 0 20 73.6416v50.7168A3.57836 3.57836 0 0 0 23.50287 128H45.57129L27.126 146.29a.99533.99533 0 0 0-.295.71H16a1 1 0 0 0 0 2H152a1 1 0 0 0 0-2zM110 81.94141l6-1.60944V98.625h2V78.58008c0-.19141.18121-.3819.4502-.47369l26.41162-8.998a1.02344 1.02344 0 0 1 .918.11719A.46166.46166 0 0 1 146 69.582v58.93951a.46086.46086 0 0 1-.21973.35553 1.03385 1.03385 0 0 1-.91846.11707l-26.41113-8.998c-.26947-.0918-.45068-.28223-.45068-.47363V113.125h-2v4.6416l-6-1.60065zM102 76h5a1.001 1.001 0 0 1 1 1v44a1.001 1.001 0 0 1-1 1h-5zM80 126H72v-8h8zm10 0H82v-8h8zm10-3v1.3584a1.62667 1.62667 0 0 1-.98138 1.52637.94621.94621 0 0 0-.104.04883A1.42747 1.42747 0 0 1 98.49707 126H92v-8h8zM92 72h6.49707a1.5063 1.5063 0 0 1 .41064.05859A1.6459 1.6459 0 0 1 100 73.6416V80H92zM82 72h8v8H82zM72 72h8v8H72zM62 72h8v8H62zM52 72h8v8H52zm-4.47461-2.36133l-.16992-9.41309 8.87946-4.14752.16986 9.41315zM50 72v8H42V72zm8.38867-7.43549l-.16986-9.41315 8.87891-4.14648.16986 9.41309zm10.86279-5.0733l-.17-9.41315 8.87939-4.14648.17 9.41309zM89.39362 40.5918a.95764.95764 0 0 1 .74408-.03131 1.00266 1.00266 0 0 1 .56439.53131l2.70422 5.98047a1.037 1.037 0 0 1-.4903 1.36725h-.00055L80.11469 54.418l-.16986-9.41309zM76 22A10 10 0 1 1 66 32 10.01138 10.01138 0 0 1 76 22zM49.56592 31.51367a34.44251 34.44251 0 0 0 15.00537-3.16211A11.9913 11.9913 0 0 0 76 44a12.07112 12.07112 0 0 0 1.63672-.125L48.502 57.48236A16.92719 16.92719 0 0 0 47.2207 31.44818C47.97559 31.4873 48.75287 31.51367 49.56592 31.51367zM37 60A15 15 0 1 1 52 45 15.01672 15.01672 0 0 1 37 60zm8.37158 1.15137L45.53131 70H36.57709l-.08441-4.70123zM40 72v8H32V72zm-5.49121-5.77539L34.57672 70H26.42578zM22 73.6416A1.57862 1.57862 0 0 1 23.50287 72H30v8H22zM22 112H44a1 1 0 0 0 0-2H22v-2H40a1 1 0 0 0 0-2H22v-2H36a1 1 0 0 0 0-2H22v-2H32a1 1 0 0 0 0-2H22V96H36a1 1 0 0 0 0-2H22V92H40a1 1 0 0 0 0-2H22V88H44a1 1 0 0 0 0-2H22V82h78v4H78a1 1 0 0 0 0 2h22v2H82a1 1 0 0 0 0 2h18v2H86a1 1 0 0 0 0 2h14v2H90a1 1 0 0 0 0 2h10v2H86a1 1 0 0 0 0 2h14v2H82a1 1 0 0 0 0 2h18v2H78a1 1 0 0 0 0 2h22v4H22zm48 6v8H62v-8zm-10 0v8H52v-8zm-30 8H23.50287A1.57866 1.57866 0 0 1 22 124.3584V118h8zm10 0H32v-8h8zm2 0v-8h8v8zm6.41162 2H73.58838l19.16144 19H29.25018zM11 147H6a1 1 0 0 0 0 2h5a1 1 0 0 0 0-2z"/><circle cx="1" cy="148" r="1" fill="#2d4356"/><path fill="#2d4356" d="M162,147h-5a1,1,0,0,0,0,2h5a1,1,0,0,0,0-2Z"/><circle cx="167" cy="148" r="1" fill="#2d4356"/><path fill="#0bceb2" d="M76.43749,99a15.5,15.5,0,1,0-15.5,15.5A15.51732,15.51732,0,0,0,76.43749,99Zm-15.5,13.5a13.5,13.5,0,1,1,13.5-13.5A13.51516,13.51516,0,0,1,60.93749,112.5Z"/><polygon fill="#0bceb2" points="15.583 7.511 17.07 5.556 16.131 5.024 15.177 7.214 15.145 7.214 14.175 5.039 13.22 5.587 14.691 7.496 14.691 7.527 12.391 7.23 12.391 8.294 14.707 7.997 14.707 8.028 13.22 9.936 14.112 10.5 15.13 8.294 15.16 8.294 16.099 10.484 17.085 9.921 15.583 8.043 15.583 8.012 17.945 8.294 17.945 7.23 15.583 7.542 15.583 7.511"/><polygon fill="#0bceb2" points="39.281 17.269 40.137 16.143 39.597 15.837 39.047 17.098 39.029 17.098 38.471 15.845 37.92 16.161 38.768 17.26 38.768 17.278 37.443 17.107 37.443 17.72 38.777 17.549 38.777 17.567 37.92 18.666 38.434 18.99 39.02 17.72 39.038 17.72 39.578 18.981 40.146 18.657 39.281 17.575 39.281 17.557 40.641 17.72 40.641 17.107 39.281 17.287 39.281 17.269"/><polygon fill="#0bceb2" points="157 47.213 157 46.17 154.683 46.477 154.683 46.446 156.142 44.528 155.221 44.006 154.285 46.154 154.253 46.154 153.302 44.021 152.365 44.559 153.808 46.431 153.808 46.462 151.552 46.17 151.552 47.213 153.823 46.922 153.823 46.953 152.365 48.825 153.24 49.378 154.238 47.213 154.268 47.213 155.189 49.362 156.156 48.81 154.683 46.968 154.683 46.937 157 47.213"/><polygon fill="#0bceb2" points="89.702 11.523 88.444 13.138 89.198 13.615 90.06 11.748 90.085 11.748 90.88 13.601 91.714 13.125 90.443 11.536 90.443 11.509 92.442 11.748 92.442 10.848 90.443 11.112 90.443 11.086 91.701 9.431 90.907 8.981 90.099 10.834 90.073 10.834 89.252 8.994 88.444 9.458 89.689 11.073 89.689 11.099 87.742 10.848 87.742 11.748 89.702 11.496 89.702 11.523"/><path fill="#0bceb2" d="M105 153H63a1 1 0 0 0 0 2H81v2H71a1 1 0 0 0 0 2H98a1 1 0 0 0 0-2H87v-2h18a1 1 0 0 0 0-2zM119 153H109a1 1 0 0 0 0 2h10a1 1 0 0 0 0-2zM59 153H49a1 1 0 0 0 0 2H59a1 1 0 0 0 0-2z"/></svg>